#N canvas 919 289 450 300 12;
#X obj 82 75 inlet;
#X obj 85 242 outlet;
#X obj 87 120 route list, f 12;
#X obj 189 155 s \$1-params;
#X obj 190 183 r \$1-params;
#X obj 87 154 s \$1-midi-in;
#X obj 88 182 r \$1-midi-out;
#X connect 0 0 2 0;
#X connect 2 0 5 0;
#X connect 2 1 3 0;
#X connect 4 0 1 0;
#X connect 6 0 1 0;
