#N canvas 0 37 1470 891 12;
#X floatatom 1269 257 4 0 0 0 - - - 0;
#X obj 1269 226 /, f 6;
#X obj 1312 175 t b f;
#X obj 1256 326 *~;
#X obj 1116 69 sig~;
#X obj 1115 112 +~;
#X obj 1166 171 *~;
#X obj 1113 199 +~;
#X obj 913 1001 outlet~;
#X obj 307 20 inlet;
#X obj 358 558 spigot;
#X obj 358 516 mtof;
#X obj 913 727 *~, f 14;
#X obj 921 463 osc~;
#X obj 922 366 +~, f 40;
#X obj 935 284 line~;
#X msg 935 254 \$1 100;
#X obj 936 222 pow 4;
#X obj 924 27 inlet~;
#X obj 358 286 unpack, f 28;
#X obj 923 326 *~;
#X obj 1041 479 osc~ 0.5;
#X obj 1048 604 *~;
#X obj 992 604 sig~ 1;
#X obj 1005 640 -~;
#X obj 1043 517 expr~ $v1 * 0.5 + 0.5;
#X obj 914 951 *~;
#X obj 915 841 *~, f 53;
#X obj 1402 505 r from-peak-\$1;
#X obj 1274 536 moses 1;
#X obj 548 543 s \$0-velocity;
#X obj 1274 420 r \$0-velocity;
#X text 2344 2643 comment;
#X obj 1044 428 pow 4;
#X obj 1319 580 / 127;
#X obj 1284 802 *~;
#X obj 20 340 bop.p.param \$0 gain;
#X obj 20 290 bop.p.param \$0 lfo-speed;
#X obj 20 310 bop.p.param \$0 lfo-depth;
#X obj 20 260 bop.p.param \$0 r;
#X obj 20 240 bop.p.param \$0 s;
#X obj 20 200 bop.p.param \$0 a;
#X obj 20 220 bop.p.param \$0 d;
#X obj 1367 474 bop.p.scale 0 1 1 1000;
#X obj 1441 565 bop.p.scale 0 1 1 3000;
#X obj 1514 653 bop.p.scale 0 1 1 3000;
#X obj 1562 708 bop.p.scale 0 1 -3 3;
#X obj 1288 753 bop.p.adsr~ 1000 1 1000 0.5 1000 -3;
#X obj 414 185 s \$0-params;
#X obj 20 170 bop.p.param \$0 fm;
#X obj 20 100 bop.p.number \$0 dividend;
#X obj 20 120 bop.p.number \$0 divisor;
#X obj 20 140 bop.p.number \$0 detune;
#X obj 677 238 savestate, f 17;
#X obj 1042 405 r \$0-get-lfo-speed;
#X obj 1063 547 r \$0-get-lfo-depth;
#X obj 953 916 r \$0-get-gain;
#X obj 939 151 r \$0-get-fm;
#X obj 1310 139 r \$0-get-divisor;
#X obj 1184 76 r \$0-get-detune;
#X obj 1277 113 r \$0-get-dividend;
#X obj 94 80 bop.p.toggle \$0 velocity;
#X obj 94 60 bop.p.toggle \$0 note;
#X obj 397 519 r \$0-get-note;
#X obj 567 394 r \$0-get-velocity, f 16;
#X obj 549 458 spigot;
#X msg 611 480 127;
#X obj 1367 444 r \$0-get-a;
#X obj 1441 540 r \$0-get-d;
#X obj 1514 621 r \$0-get-r;
#X obj 1479 595 r \$0-get-s;
#X obj 1562 684 r \$0-get-c;
#X obj 611 451 sel 0 1;
#X obj 660 484 f;
#X text 334 95 LISTS: MIDI note and velocity;
#X text 331 72 floats: frequency;
#X obj 317 619 s \$0-set-frequency;
#X obj 1114 42 r \$0-get-frequency;
#X obj 20 40 bop.p.number \$0 frequency;
#X obj 1042 452 * 20;
#X obj 307 145 route float list;
#X text 985 25 FM;
#X obj 939 190 * 10;
#X obj 676 211 bop.p.autosave \$0;
#X obj 1188 125 / 10000;
#X text 509 159 Other messages get picked up in the bop.p.param \, bop.p.toggle \, and bop.p.number objects, f 20;
#X text 668 158 And are stored in here when the parent patch is saved, f 22;
#X obj 20 70 cnv 19 30 10 empty empty track: 0 10 0 10 #ffffff #404040 0;
#X connect 0 0 3 1;
#X connect 1 0 0 0;
#X connect 2 0 1 0;
#X connect 2 1 1 1;
#X connect 3 0 14 1;
#X connect 4 0 5 0;
#X connect 5 0 6 0;
#X connect 5 0 7 0;
#X connect 6 0 7 1;
#X connect 7 0 3 0;
#X connect 9 0 80 0;
#X connect 10 0 76 0;
#X connect 11 0 10 0;
#X connect 12 0 27 0;
#X connect 13 0 12 0;
#X connect 14 0 13 0;
#X connect 15 0 20 1;
#X connect 16 0 15 0;
#X connect 17 0 16 0;
#X connect 18 0 20 0;
#X connect 19 0 11 0;
#X connect 19 1 65 0;
#X connect 19 1 73 1;
#X connect 20 0 14 0;
#X connect 21 0 25 0;
#X connect 22 0 24 1;
#X connect 23 0 24 0;
#X connect 24 0 12 1;
#X connect 25 0 22 0;
#X connect 26 0 8 0;
#X connect 27 0 26 0;
#X connect 28 0 47 3;
#X connect 29 0 47 1;
#X connect 29 1 34 0;
#X connect 31 0 29 0;
#X connect 33 0 79 0;
#X connect 34 0 35 1;
#X connect 34 0 47 0;
#X connect 35 0 27 1;
#X connect 43 0 47 2;
#X connect 44 0 47 4;
#X connect 45 0 47 6;
#X connect 46 0 47 7;
#X connect 47 0 35 0;
#X connect 53 0 83 1;
#X connect 53 1 83 0;
#X connect 54 0 33 0;
#X connect 55 0 22 1;
#X connect 56 0 26 1;
#X connect 57 0 82 0;
#X connect 58 0 2 0;
#X connect 59 0 84 0;
#X connect 60 0 1 0;
#X connect 63 0 10 1;
#X connect 64 0 65 1;
#X connect 64 0 72 0;
#X connect 65 0 30 0;
#X connect 66 0 30 0;
#X connect 67 0 43 0;
#X connect 68 0 44 0;
#X connect 69 0 45 0;
#X connect 70 0 47 5;
#X connect 71 0 46 0;
#X connect 72 0 66 0;
#X connect 72 1 73 0;
#X connect 73 0 30 0;
#X connect 77 0 4 0;
#X connect 79 0 21 0;
#X connect 80 0 76 0;
#X connect 80 1 19 0;
#X connect 80 2 48 0;
#X connect 82 0 17 0;
#X connect 83 0 53 0;
#X connect 84 0 6 1;
#X coords 0 -1 1 1 166 360 1 10 10;
