#N canvas 64 37 986 891 12;
#X floatatom 1400 181 4 0 0 0 - - - 0;
#X obj 1400 150 /, f 6;
#X obj 1443 99 t b f;
#X obj 1149 271 *~;
#X obj 1154 45 sig~;
#X obj 1153 88 +~;
#X obj 1204 147 *~;
#X obj 1151 175 +~;
#X obj 1140 1003 outlet~;
#X obj 279 43 inlet;
#X obj 320 369 spigot;
#X obj 320 327 mtof;
#X obj 1140 729 *~, f 14;
#X obj 1148 465 osc~;
#X obj 1149 368 +~, f 71;
#X obj 1659 273 line~;
#X floatatom 1657 208 22 0 0 0 - - - 0;
#X msg 1659 243 \$1 100;
#X obj 1658 173 pow 4;
#X obj 1638 32 inlet~;
#X obj 320 157 unpack;
#X obj 1647 315 *~;
#X obj 1268 481 osc~ 0.5;
#X obj 1275 606 *~;
#X obj 1219 606 sig~ 1;
#X obj 1232 642 -~;
#X obj 1270 519 expr~ $v1 * 0.5 + 0.5;
#X obj 1141 953 *~;
#X obj 1142 843 *~, f 53;
#X obj 1629 507 r from-peak-\$1;
#X obj 1501 538 moses 1;
#X obj 358 279 s \$0-velocity;
#X obj 1501 422 r \$0-velocity;
#X obj 1661 141 * 20;
#X text 2344 2643 comment;
#X text 274 458 ------------------------------ SAVESTATE ------------------------------------, f 80;
#X text 289 20 --------------------- MESSAGE FORWARDING --------------------, f 66;
#X obj 1271 430 pow 4;
#X obj 1546 582 / 127;
#X obj 1511 804 *~;
#X obj 12 335 bop.p.param \$0 gain;
#X obj 12 291 bop.p.param \$0 lfo-speed;
#X obj 12 313 bop.p.param \$0 lfo-depth;
#X obj 12 259 bop.p.param \$0 r;
#X obj 12 237 bop.p.param \$0 s;
#X obj 12 193 bop.p.param \$0 a;
#X obj 12 215 bop.p.param \$0 d;
#X obj 1594 476 bop.p.scale 0 1 1 1000;
#X obj 1668 567 bop.p.scale 0 1 1 3000;
#X obj 1741 655 bop.p.scale 0 1 1 3000;
#X obj 1789 710 bop.p.scale 0 1 -3 3;
#X obj 1515 755 bop.p.adsr~ 1000 1 1000 0.5 1000 -3;
#X obj 386 123 s \$0-params;
#X text 569 165 These messages get picked up in the bop.p.param \, bop.p.toggle \, and bop.p.number objects, f 20;
#X obj 12 161 bop.p.param \$0 fm;
#X obj 12 85 bop.p.number \$0 dividend;
#X obj 12 107 bop.p.number \$0 divisor;
#X obj 12 129 bop.p.number \$0 detune;
#X obj 283 498 r \$0-params;
#X obj 656 730 s \$0-savestate;
#X obj 499 563 savestate, f 17;
#X obj 615 601 bng 19 250 50 0 empty empty empty 0 -10 0 12 #fcfcfc #000000 #000000;
#X msg 697 660 -1;
#X msg 618 767 line 0 \, bang;
#X obj 615 632 t b b b, f 12;
#X obj 499 526 bng 19 250 50 0 empty empty empty 0 -10 0 12 #fcfcfc #000000 #000000;
#X obj 499 811 s \$0-params;
#X obj 656 693 bng 19 250 50 0 empty empty empty 0 -10 0 12 #fcfcfc #000000 #000000;
#X text 668 563 on save: clear data send savestate message to params params save state to text dump text into savestate, f 36;
#X obj 283 565 text set \$0-paramData 9999;
#X obj 285 656 text define \$0-paramData;
#X obj 697 689 text delete \$0-paramData;
#X obj 618 794 text sequence \$0-paramData;
#X obj 499 776 list trim;
#X obj 283 532 list;
#X obj 1269 407 r \$0-get-lfo-speed;
#X obj 1290 549 r \$0-get-lfo-depth;
#X obj 1180 918 r \$0-get-gain;
#X obj 1661 102 r \$0-get-fm;
#X obj 1441 63 r \$0-get-divisor;
#X obj 1222 52 r \$0-get-detune;
#X obj 1408 37 r \$0-get-dividend;
#X obj 86 31 bop.p.toggle \$0 velocity;
#X obj 12 31 bop.p.toggle \$0 note;
#X obj 359 330 r \$0-get-note;
#X obj 421 163 r \$0-get-velocity;
#X obj 359 226 spigot;
#X msg 421 248 127;
#X obj 1594 446 r \$0-get-a;
#X obj 1668 542 r \$0-get-d;
#X obj 1741 623 r \$0-get-r;
#X obj 1706 597 r \$0-get-s;
#X obj 1789 686 r \$0-get-c;
#X obj 421 219 sel 0 1;
#X obj 492 251 f;
#X text 513 71 LISTS: MIDI note and velocity;
#X text 512 94 floats: frequency;
#X obj 279 430 s \$0-set-frequency;
#X obj 1152 18 r \$0-get-frequency;
#X obj 12 53 bop.p.number \$0 frequency;
#X obj 1226 101 / 100000;
#X obj 1269 454 * 20;
#X obj 279 83 route float list;
#X connect 0 0 3 1;
#X connect 1 0 0 0;
#X connect 2 0 1 0;
#X connect 2 1 1 1;
#X connect 3 0 14 0;
#X connect 4 0 5 0;
#X connect 5 0 6 0;
#X connect 5 0 7 0;
#X connect 6 0 7 1;
#X connect 7 0 3 0;
#X connect 9 0 102 0;
#X connect 10 0 97 0;
#X connect 11 0 10 0;
#X connect 12 0 28 0;
#X connect 13 0 12 0;
#X connect 14 0 13 0;
#X connect 15 0 21 1;
#X connect 16 0 17 0;
#X connect 17 0 15 0;
#X connect 18 0 16 0;
#X connect 19 0 21 0;
#X connect 20 0 11 0;
#X connect 20 1 86 0;
#X connect 20 1 94 1;
#X connect 21 0 14 1;
#X connect 22 0 26 0;
#X connect 23 0 25 1;
#X connect 24 0 25 0;
#X connect 25 0 12 1;
#X connect 26 0 23 0;
#X connect 27 0 8 0;
#X connect 28 0 27 0;
#X connect 29 0 51 3;
#X connect 30 0 51 1;
#X connect 30 1 38 0;
#X connect 32 0 30 0;
#X connect 33 0 18 0;
#X connect 37 0 101 0;
#X connect 38 0 39 1;
#X connect 38 0 51 0;
#X connect 39 0 28 1;
#X connect 47 0 51 2;
#X connect 48 0 51 4;
#X connect 49 0 51 6;
#X connect 50 0 51 7;
#X connect 51 0 39 0;
#X connect 58 0 74 0;
#X connect 60 0 73 0;
#X connect 60 1 61 0;
#X connect 61 0 64 0;
#X connect 62 0 71 0;
#X connect 63 0 72 0;
#X connect 64 0 63 0;
#X connect 64 1 67 0;
#X connect 64 2 62 0;
#X connect 65 0 60 0;
#X connect 67 0 59 0;
#X connect 72 0 60 0;
#X connect 73 0 66 0;
#X connect 74 0 69 0;
#X connect 75 0 37 0;
#X connect 76 0 23 1;
#X connect 77 0 27 1;
#X connect 78 0 33 0;
#X connect 79 0 2 0;
#X connect 80 0 100 0;
#X connect 81 0 1 0;
#X connect 84 0 10 1;
#X connect 85 0 86 1;
#X connect 85 0 93 0;
#X connect 86 0 31 0;
#X connect 87 0 31 0;
#X connect 88 0 47 0;
#X connect 89 0 48 0;
#X connect 90 0 49 0;
#X connect 91 0 51 5;
#X connect 92 0 50 0;
#X connect 93 0 87 0;
#X connect 93 1 94 0;
#X connect 94 0 31 0;
#X connect 98 0 4 0;
#X connect 100 0 6 1;
#X connect 101 0 22 0;
#X connect 102 0 97 0;
#X connect 102 1 20 0;
#X connect 102 2 52 0;
#X coords 0 -1 1 1 150 350 1 10 10;
