#N canvas 706 190 751 624 12;
#X text 372 51 \$1: parent \$0;
#X text 371 70 \$2: label;
#X obj 358 303 route \$2;
#X obj 12 124 symbol \$2;
#X text 370 180 send: \$0-from-[label];
#X text 370 202 recv: \$0-to-[label];
#X text 371 109 binds to a ui element in parent patch with sends and receives as so:, f 20;
#X text 371 31 arguments:;
#X obj 131 304 s \$1-params;
#X obj 207 175 f;
#X obj 131 257 pack s f;
#X obj 130 176 symbol \$2;
#X obj 130 59 r \$1-savestate;
#X obj 130 116 t b b;
#X obj 358 269 r \$1-params;
#X obj 10 10 tgl 20 1 \$1-get-\$2 \$1-set-\$2 velocity 23 10 0 10 #fcfcfc #bbbbbb #000000 1 1;
#X msg 12 159 label \$1;
#X obj 12 50 loadbang;
#X obj 12 84 bng 19 250 50 0 empty empty empty 0 -10 0 12 #fcfcfc #000000 #000000;
#X obj 12 189 s \$1-set-\$2;
#X obj 221 132 r \$1-get-\$2;
#X obj 358 334 s \$1-set-\$2;
#X connect 2 0 21 0;
#X connect 3 0 16 0;
#X connect 9 0 10 1;
#X connect 10 0 8 0;
#X connect 11 0 10 0;
#X connect 12 0 13 0;
#X connect 13 0 11 0;
#X connect 13 1 9 0;
#X connect 14 0 2 0;
#X connect 16 0 19 0;
#X connect 17 0 18 0;
#X connect 18 0 3 0;
#X connect 20 0 9 1;
#X coords 0 -1 1 1 72 20 2 10 10;
