#N canvas 37 157 969 783 12;
#X floatatom 1400 181 4 0 0 0 - - - 0;
#X obj 1400 150 /, f 6;
#X obj 1443 99 t b f;
#X obj 1149 271 *~;
#X obj 1154 45 sig~;
#X obj 1153 88 +~;
#X obj 1204 147 *~;
#X obj 1226 101 / 100;
#X obj 1151 175 +~;
#X obj 1138 887 outlet~;
#X obj 279 63 inlet;
#X obj 280 279 spigot;
#X obj 280 237 mtof;
#X obj 1140 729 *~, f 14;
#X obj 1148 465 osc~;
#X obj 1149 368 +~, f 71;
#X obj 1659 273 line~;
#X floatatom 1657 208 22 0 0 0 - - - 0;
#X msg 1659 243 \$1 100;
#X obj 1658 173 pow 4;
#X obj 1638 32 inlet~;
#X obj 280 177 unpack;
#X obj 1647 315 *~;
#X obj 1268 481 osc~ 0.5;
#X obj 1275 606 *~;
#X obj 1219 606 sig~ 1;
#X obj 1232 642 -~;
#X obj 1270 519 expr~ $v1 * 0.5 + 0.5;
#X obj 1138 802 *~;
#X obj 1142 843 *~, f 53;
#X obj 1629 507 r from-peak-\$1;
#X obj 1501 538 moses 1;
#X obj 319 210 s \$0-velocity;
#X obj 1501 422 r \$0-velocity;
#X obj 1661 141 * 20;
#X obj 1594 446 r \$0-from-a;
#X obj 1668 542 r \$0-from-d;
#X obj 1706 597 r \$0-from-s;
#X obj 1741 623 r \$0-from-r;
#X obj 1789 686 r \$0-from-c;
#X text 2344 2643 comment;
#X text 274 374 ------------------------------ SAVESTATE ------------------------------------, f 80;
#X text 289 40 --------------------- MESSAGE FORWARDING --------------------, f 66;
#X obj 1269 454 * 440;
#X obj 1271 430 pow 4;
#X obj 1546 582 / 127;
#X obj 1511 804 *~;
#X obj 279 103 route list;
#X obj 12 336 bop.p.param \$0 gain;
#X obj 12 292 bop.p.param \$0 lfo-speed;
#X obj 12 314 bop.p.param \$0 lfo-depth;
#X obj 12 260 bop.p.param \$0 r;
#X obj 12 238 bop.p.param \$0 s;
#X obj 12 194 bop.p.param \$0 a;
#X obj 12 216 bop.p.param \$0 d;
#X obj 1594 476 bop.p.scale 0 1 1 1000;
#X obj 1668 567 bop.p.scale 0 1 1 3000;
#X obj 1741 655 bop.p.scale 0 1 1 3000;
#X obj 1789 710 bop.p.scale 0 1 -3 3;
#X obj 1515 755 bop.p.adsr~ 1000 1 1000 0.5 1000 -3;
#X obj 346 143 s \$0-params;
#X text 443 109 These messages get picked up in the bop.p.param \, bop.p.toggle \, and bop.p.number objects, f 20;
#X obj 12 162 bop.p.param \$0 fm;
#X obj 85 54 bop.p.toggle \$0 track;
#X obj 12 32 bop.p.number \$0 tune;
#X obj 12 86 bop.p.number \$0 dividend;
#X obj 12 108 bop.p.number \$0 divisor;
#X obj 12 130 bop.p.number \$0 detune;
#X obj 303 811 r \$0-params;
#X obj 456 630 s \$0-savestate;
#X obj 299 463 savestate, f 17;
#X obj 415 501 bng 19 250 50 0 empty empty empty 0 -10 0 12 #fcfcfc #000000 #000000;
#X msg 497 560 -1;
#X msg 418 667 line 0 \, bang;
#X obj 415 532 t b b b, f 12;
#X obj 299 426 bng 19 250 50 0 empty empty empty 0 -10 0 12 #fcfcfc #000000 #000000;
#X obj 299 711 s \$0-params;
#X obj 456 593 bng 19 250 50 0 empty empty empty 0 -10 0 12 #fcfcfc #000000 #000000;
#X obj 401 810 r \$0-params;
#X text 468 463 on save: clear data send savestate message to params params save state to text dump text into savestate, f 36;
#X obj 303 878 text set \$0-paramData 9999;
#X obj 303 912 text define \$0-paramData;
#X obj 401 842 print params;
#X obj 418 735 print dump;
#X obj 497 589 text delete \$0-paramData;
#X obj 418 694 text sequence \$0-paramData;
#X obj 299 676 list trim;
#X obj 303 845 list;
#X obj 1269 407 r \$0-get-lfo-speed;
#X obj 1290 549 r \$0-get-lfo-depth;
#X obj 1177 767 r \$0-get-gain;
#X obj 1661 102 r \$0-get-fm;
#X obj 1441 63 r \$0-get-divisor;
#X obj 1222 52 r \$0-get-detune;
#X obj 1152 18 r \$0-get-tune;
#X obj 1408 37 r \$0-get-dividend;
#X obj 319 240 r \$0-get-track;
#X obj 280 308 s \$0-set-tune;
#X connect 0 0 3 1;
#X connect 1 0 0 0;
#X connect 2 0 1 0;
#X connect 2 1 1 1;
#X connect 3 0 15 0;
#X connect 4 0 5 0;
#X connect 5 0 6 0;
#X connect 5 0 8 0;
#X connect 6 0 8 1;
#X connect 7 0 6 1;
#X connect 8 0 3 0;
#X connect 10 0 47 0;
#X connect 11 0 97 0;
#X connect 12 0 11 0;
#X connect 13 0 28 0;
#X connect 14 0 13 0;
#X connect 15 0 14 0;
#X connect 16 0 22 1;
#X connect 17 0 18 0;
#X connect 18 0 16 0;
#X connect 19 0 17 0;
#X connect 20 0 22 0;
#X connect 21 0 12 0;
#X connect 21 1 32 0;
#X connect 22 0 15 1;
#X connect 23 0 27 0;
#X connect 24 0 26 1;
#X connect 25 0 26 0;
#X connect 26 0 13 1;
#X connect 27 0 24 0;
#X connect 28 0 29 0;
#X connect 29 0 9 0;
#X connect 30 0 59 3;
#X connect 31 0 59 1;
#X connect 31 1 45 0;
#X connect 33 0 31 0;
#X connect 34 0 19 0;
#X connect 35 0 55 0;
#X connect 36 0 56 0;
#X connect 37 0 59 5;
#X connect 38 0 57 0;
#X connect 39 0 58 0;
#X connect 43 0 23 0;
#X connect 44 0 43 0;
#X connect 45 0 46 1;
#X connect 45 0 59 0;
#X connect 46 0 29 1;
#X connect 47 0 21 0;
#X connect 47 1 60 0;
#X connect 55 0 59 2;
#X connect 56 0 59 4;
#X connect 57 0 59 6;
#X connect 58 0 59 7;
#X connect 59 0 46 0;
#X connect 68 0 87 0;
#X connect 70 0 86 0;
#X connect 70 1 71 0;
#X connect 71 0 74 0;
#X connect 72 0 84 0;
#X connect 73 0 85 0;
#X connect 74 0 73 0;
#X connect 74 1 77 0;
#X connect 74 2 72 0;
#X connect 75 0 70 0;
#X connect 77 0 69 0;
#X connect 78 0 82 0;
#X connect 85 0 70 0;
#X connect 85 0 83 0;
#X connect 86 0 76 0;
#X connect 87 0 80 0;
#X connect 88 0 44 0;
#X connect 89 0 24 1;
#X connect 90 0 28 1;
#X connect 91 0 34 0;
#X connect 92 0 2 0;
#X connect 93 0 7 0;
#X connect 94 0 4 0;
#X connect 95 0 1 0;
#X connect 96 0 11 1;
#X coords 0 -1 1 1 150 350 1 10 10;
