#N canvas 724 310 791 504 12;
#X text 175 26 \$1: parent \$0;
#X text 174 45 \$2: label;
#X obj 15 268 t b f, f 13;
#X obj 439 98 route \$2;
#X msg 16 435 label \$1:\$2;
#X obj 16 401 pack s f, f 13;
#X obj 15 352 symbol \$2;
#X obj 101 307 * 1000;
#X obj 101 334 int;
#X obj 101 361 / 1000;
#X text 174 153 send: \$0-from-[label];
#X text 174 175 recv: \$0-to-[label];
#X text 175 82 binds to a ui element in parent patch with sends and receives as so:, f 20;
#X text 174 6 arguments:;
#X obj 13 10 hsl 141 20 0 1 0 0 \$1-get-\$2 \$1-set-\$2 :0 3 10 0 10 #e3c6ff #c6feff #000000 0 1;
#X obj 458 430 s \$1-params;
#X obj 535 345 f;
#X obj 458 383 pack s f;
#X obj 458 346 symbol \$2;
#X obj 454 277 r \$1-savestate;
#X obj 456 308 t b b, f 9;
#X obj 439 54 r \$1-params;
#X obj 16 465 s \$1-set-\$2;
#X obj 548 310 r \$1-get-\$2;
#X obj 439 139 s \$1-set-\$2;
#X text 531 101 route based on param name;
#X text 530 138 forward to param;
#X text 526 52 receives params from parent module;
#X obj 13 238 r \$1-get-\$2;
#X text 555 431 send params parent savestate;
#X obj 24 306 loadbang;
#X connect 2 0 6 0;
#X connect 2 1 7 0;
#X connect 3 0 24 0;
#X connect 4 0 22 0;
#X connect 5 0 4 0;
#X connect 6 0 5 0;
#X connect 7 0 8 0;
#X connect 8 0 9 0;
#X connect 9 0 5 1;
#X connect 16 0 17 1;
#X connect 17 0 15 0;
#X connect 18 0 17 0;
#X connect 19 0 20 0;
#X connect 20 0 18 0;
#X connect 20 1 16 0;
#X connect 21 0 3 0;
#X connect 23 0 16 1;
#X connect 28 0 2 0;
#X connect 30 0 6 0;
#X coords 0 -1 1 1 146 20 2 10 10;
