#N canvas 484 199 751 624 12;
#X text 361 181 \$1: parent \$0;
#X text 360 200 \$2: label;
#X obj 247 69 r \$1-from-\$2;
#X obj 32 429 s \$1-to-\$2;
#X obj 31 202 t b f;
#X obj 566 172 r \$1-inlet;
#X obj 566 206 route \$2;
#X obj 566 237 s \$1-to-\$2;
#X msg 33 369 label \$1:\$2;
#X obj 32 335 pack s f;
#X obj 31 254 symbol \$2;
#X obj 117 241 * 1000;
#X obj 117 269 int;
#X obj 117 296 / 1000;
#X text 359 310 send: \$0-from-[label];
#X text 359 332 recv: \$0-to-[label];
#X text 360 239 binds to a ui element in parent patch with sends and receives as so:, f 20;
#X text 360 161 arguments:;
#X obj 13 10 hsl 141 16 0 1 0 1 \$1-from-\$2 \$1-to-\$2 fm:0 3 7 0 10 #fcfcfc #bbbbbb #000000 0 1;
#X obj 232 464 s \$1-params;
#X obj 308 335 f;
#X obj 232 417 pack s f;
#X obj 231 336 symbol \$2;
#X obj 214 219 r \$1-savestate;
#X obj 219 276 t b b;
#X connect 2 0 4 0;
#X connect 2 0 20 1;
#X connect 4 0 10 0;
#X connect 4 1 11 0;
#X connect 5 0 6 0;
#X connect 6 0 7 0;
#X connect 8 0 3 0;
#X connect 9 0 8 0;
#X connect 10 0 9 0;
#X connect 11 0 12 0;
#X connect 12 0 13 0;
#X connect 13 0 9 1;
#X connect 20 0 21 1;
#X connect 21 0 19 0;
#X connect 22 0 21 0;
#X connect 23 0 24 0;
#X connect 24 0 22 0;
#X connect 24 1 20 0;
#X coords 0 -1 1 1 146 16 2 10 10;
