#N canvas 0 37 1088 891 12;
#X floatatom 1400 181 4 0 0 0 - - - 0;
#X text 77 92 /;
#X obj 1400 150 /, f 6;
#X obj 1443 99 t b f;
#X floatatom 98 92 5 1 100 2 divisor \$0-to-divisor \$0-from-divisor 0;
#X floatatom 32 92 5 1 100 2 dividend \$0-to-dividend \$0-from-dividend 0;
#X obj 1149 271 *~;
#X floatatom 26 48 10 0 0 2 tune\ (hz) \$0-to-tune \$0-from-tune 0;
#X obj 1154 45 sig~;
#X obj 111 47 tgl 19 1 \$0-from-track \$0-to-track track 0 -10 0 12 #fcfcfc #bbbbbb #000000 1 1;
#X obj 1153 88 +~;
#X obj 1204 147 *~;
#X obj 1226 101 / 100;
#X floatatom 56 137 7 0 0 2 detune\ (%) \$0-to-detune \$0-from-detune 0;
#X obj 1151 175 +~;
#X obj 1138 887 outlet~;
#X obj 279 63 inlet;
#X obj 583 242 spigot;
#X obj 583 200 mtof;
#X obj 583 271 s \$0-to-tune;
#X obj 1152 18 r \$0-from-tune;
#X obj 1140 729 *~, f 14;
#X obj 1155 485 osc~;
#X obj 1149 368 +~, f 71;
#X obj 1659 273 line~;
#X floatatom 1657 208 22 0 0 0 - - - 0;
#X msg 1659 243 \$1 100;
#X obj 1658 173 pow 4;
#X obj 1638 32 inlet~;
#X obj 583 140 unpack;
#X obj 1661 102 r \$0-from-fm;
#X obj 1647 315 *~;
#X obj 1268 481 osc~ 0.5;
#X obj 1275 606 *~;
#X obj 1219 606 sig~ 1;
#X obj 1232 642 -~;
#X obj 1270 519 expr~ $v1 * 0.5 + 0.5;
#X obj 285 420 loadbang;
#X msg 285 456 1;
#X obj 1177 767 r \$0-from-gain;
#X obj 1138 802 *~;
#X obj 1142 843 *~, f 53;
#X obj 1629 507 r from-peak-\$1;
#X obj 1501 538 moses 1;
#X obj 622 173 s \$0-velocity;
#X obj 1501 422 r \$0-velocity;
#X obj 1661 141 * 20;
#X obj 622 203 r \$0-from-track;
#X msg 332 456 0;
#X obj 304 529 s \$0-to-dividend;
#X obj 1408 37 r \$0-from-dividend;
#X obj 1441 63 r \$0-from-divisor;
#X obj 278 552 s \$0-to-divisor;
#X obj 588 556 s \$0-to-tune;
#X obj 614 517 s \$0-to-track;
#X obj 658 485 s \$0-to-dividend;
#X obj 709 459 s \$0-to-divisor;
#X obj 1222 52 r \$0-from-detune;
#X obj 331 493 s \$0-to-detune;
#X obj 780 426 s \$0-to-detune;
#X obj 1594 446 r \$0-from-a;
#X obj 1668 542 r \$0-from-d;
#X obj 1706 597 r \$0-from-s;
#X obj 1741 623 r \$0-from-r;
#X obj 1789 686 r \$0-from-c;
#X obj 558 1089 r \$0-from-gain;
#X obj 477 1009 r \$0-from-r;
#X obj 464 981 r \$0-from-s;
#X obj 445 953 r \$0-from-d;
#X obj 432 927 r \$0-from-a;
#X obj 420 900 r \$0-from-fm;
#X obj 403 873 r \$0-from-detune;
#X obj 388 839 r \$0-from-divisor;
#X obj 368 811 r \$0-from-dividend;
#X obj 353 781 r \$0-from-track;
#X obj 330 746 r \$0-from-tune;
#X obj 494 1035 r \$0-from-lfo-speed;
#X obj 528 1061 r \$0-from-lfo-depth;
#X text 2344 2643 comment;
#X obj 316 1202 savestate, f 13;
#X obj 274 1766 s \$0-to-tune;
#X obj 304 1730 s \$0-to-track;
#X obj 318 1698 s \$0-to-dividend;
#X obj 339 1672 s \$0-to-divisor;
#X obj 370 1639 s \$0-to-detune;
#X obj 408 1612 s \$0-to-fm;
#X obj 423 1579 s \$0-to-a;
#X obj 458 1553 s \$0-to-d;
#X obj 487 1521 s \$0-to-s;
#X obj 523 1494 s \$0-to-r;
#X obj 538 1469 s \$0-to-lfo-speed;
#X obj 576 1441 s \$0-to-lfo-depth;
#X obj 591 1411 s \$0-to-gain;
#X text 284 654 ------------------------------ SAVESTATE ------------------------------------, f 80;
#X text 289 40 --------------------- MESSAGE FORWARDING --------------------, f 66;
#X text 278 371 --------------- INIT ----------------;
#X obj 309 707 r \$0-savestate;
#X obj 404 1256 s \$0-savestate;
#X obj 310 796 f;
#X obj 318 1153 pack f f f f f f f f f f f f f, f 32;
#X obj 315 1354 unpack f f f f f f f f f f f f f, f 38;
#X obj 311 1237 t b l, f 10;
#X obj 314 1313 list, f 10;
#X obj 309 1279 delay 50;
#X obj 1269 407 r \$0-from-lfo-speed;
#X obj 1290 549 r \$0-from-lfo-depth;
#X obj 1269 454 * 440;
#X obj 1271 430 pow 4;
#X obj 1546 582 / 127;
#X obj 1511 804 *~;
#X obj 279 99 s \$0-inlet;
#X obj 589 366 r \$0-inlet;
#X obj 582 86 r \$0-inlet;
#X obj 582 110 route list;
#X obj 589 392 route tune track dividend divisor detune;
#X obj 20 300 bop.p.param \$0 gain;
#X obj 20 264 bop.p.param \$0 lfo-speed;
#X obj 20 282 bop.p.param \$0 lfo-depth;
#X obj 20 246 bop.p.param \$0 r;
#X obj 20 228 bop.p.param \$0 s;
#X obj 20 192 bop.p.param \$0 a;
#X obj 20 210 bop.p.param \$0 d;
#X obj 20 174 bop.p.param \$0 fm;
#X obj 1594 476 bop.p.scale 0 1 1 1000;
#X obj 1668 567 bop.p.scale 0 1 1 3000;
#X obj 1741 655 bop.p.scale 0 1 1 3000;
#X obj 1789 710 bop.p.scale 0 1 -3 3;
#X text 276 119 These messages get picked up in the bop.p.param objects;
#X obj 1515 755 bop.p.adsr~ 1000 1 1000 0.5 1000 -3;
#X connect 0 0 6 1;
#X connect 2 0 0 0;
#X connect 3 0 2 0;
#X connect 3 1 2 1;
#X connect 6 0 23 0;
#X connect 8 0 10 0;
#X connect 10 0 11 0;
#X connect 10 0 14 0;
#X connect 11 0 14 1;
#X connect 12 0 11 1;
#X connect 14 0 6 0;
#X connect 16 0 110 0;
#X connect 17 0 19 0;
#X connect 18 0 17 0;
#X connect 20 0 8 0;
#X connect 21 0 40 0;
#X connect 22 0 21 0;
#X connect 23 0 22 0;
#X connect 24 0 31 1;
#X connect 25 0 26 0;
#X connect 26 0 24 0;
#X connect 27 0 25 0;
#X connect 28 0 31 0;
#X connect 29 0 18 0;
#X connect 29 1 44 0;
#X connect 30 0 46 0;
#X connect 31 0 23 1;
#X connect 32 0 36 0;
#X connect 33 0 35 1;
#X connect 34 0 35 0;
#X connect 35 0 21 1;
#X connect 36 0 33 0;
#X connect 37 0 38 0;
#X connect 37 0 48 0;
#X connect 38 0 52 0;
#X connect 38 0 49 0;
#X connect 39 0 40 1;
#X connect 40 0 41 0;
#X connect 41 0 15 0;
#X connect 42 0 128 3;
#X connect 43 0 128 1;
#X connect 43 1 108 0;
#X connect 45 0 43 0;
#X connect 46 0 27 0;
#X connect 47 0 17 1;
#X connect 48 0 58 0;
#X connect 50 0 2 0;
#X connect 51 0 3 0;
#X connect 57 0 12 0;
#X connect 60 0 123 0;
#X connect 61 0 124 0;
#X connect 62 0 128 5;
#X connect 63 0 125 0;
#X connect 64 0 126 0;
#X connect 65 0 99 12;
#X connect 66 0 99 9;
#X connect 67 0 99 8;
#X connect 68 0 99 7;
#X connect 69 0 99 6;
#X connect 70 0 99 5;
#X connect 71 0 99 4;
#X connect 72 0 99 3;
#X connect 73 0 99 2;
#X connect 74 0 99 1;
#X connect 75 0 98 1;
#X connect 76 0 99 10;
#X connect 77 0 99 11;
#X connect 79 0 101 0;
#X connect 79 1 97 0;
#X connect 96 0 98 0;
#X connect 98 0 99 0;
#X connect 99 0 79 0;
#X connect 100 0 80 0;
#X connect 100 1 81 0;
#X connect 100 2 82 0;
#X connect 100 3 83 0;
#X connect 100 4 84 0;
#X connect 100 5 85 0;
#X connect 100 6 86 0;
#X connect 100 7 87 0;
#X connect 100 8 88 0;
#X connect 100 9 89 0;
#X connect 100 10 90 0;
#X connect 100 11 91 0;
#X connect 100 12 92 0;
#X connect 101 0 103 0;
#X connect 101 1 102 1;
#X connect 102 0 100 0;
#X connect 103 0 102 0;
#X connect 104 0 107 0;
#X connect 105 0 33 1;
#X connect 106 0 32 0;
#X connect 107 0 106 0;
#X connect 108 0 109 1;
#X connect 108 0 128 0;
#X connect 109 0 41 1;
#X connect 111 0 114 0;
#X connect 112 0 113 0;
#X connect 113 0 29 0;
#X connect 114 0 53 0;
#X connect 114 1 54 0;
#X connect 114 2 55 0;
#X connect 114 3 56 0;
#X connect 114 4 59 0;
#X connect 123 0 128 2;
#X connect 124 0 128 4;
#X connect 125 0 128 6;
#X connect 126 0 128 7;
#X connect 128 0 109 0;
#X coords 0 -1 1 1 170 320 1 10 10;
