#N canvas 0 37 735 891 12;
#X floatatom 1400 181 4 0 0 0 - - - 0;
#X text 77 92 /;
#X obj 1400 150 /, f 6;
#X obj 1443 99 t b f;
#X floatatom 98 92 5 1 100 2 divisor \$0-to-divisor \$0-from-divisor 0;
#X floatatom 32 92 5 1 100 2 dividend \$0-to-dividend \$0-from-dividend 0;
#X obj 1149 271 *~;
#X floatatom 26 48 10 0 0 2 tune\ (hz) \$0-to-tune \$0-from-tune 0;
#X obj 1154 45 sig~;
#X obj 111 47 tgl 19 1 \$0-from-track \$0-to-track track 0 -10 0 12 #fcfcfc #bbbbbb #000000 1 1;
#X obj 1153 88 +~;
#X obj 1204 147 *~;
#X obj 1226 101 / 100;
#X floatatom 56 137 7 0 0 2 detune\ (%) \$0-to-detune \$0-from-detune 0;
#X obj 1151 175 +~;
#X obj 1138 887 outlet~;
#X obj 279 63 inlet;
#X obj 576 252 spigot;
#X obj 577 210 mtof;
#X obj 576 281 s \$0-to-tune;
#X obj 1152 18 r \$0-from-tune;
#X obj 1140 729 *~, f 14;
#X obj 1155 485 osc~;
#X obj 1149 368 +~, f 71;
#X obj 23 346 hsl 120 19 0 1 0 1 \$0-from-gain \$0-to-gain gain:1 -2 10 0 12 #fcfcfc #bbbbbb #000000 11900 1;
#X obj 1659 273 line~;
#X floatatom 1657 208 22 0 0 0 - - - 0;
#X msg 1659 243 \$1 100;
#X obj 1658 173 pow 4;
#X obj 1638 32 inlet~;
#X obj 583 140 unpack;
#X obj 1661 102 r \$0-from-fm;
#X obj 1647 315 *~;
#X obj 1268 481 osc~ 0.5;
#X obj 1275 606 *~;
#X obj 1219 606 sig~ 1;
#X obj 1232 642 -~;
#X obj 1270 519 expr~ $v1 * 0.5 + 0.5;
#X obj 285 420 loadbang;
#X msg 285 456 1;
#X obj 1177 767 r \$0-from-gain;
#X obj 1138 802 *~;
#X obj 1142 843 *~, f 53;
#X obj 23 166 hsl 120 19 0 1 0 1 \$0-from-fm \$0-to-fm fm:0 -2 10 0 12 #fcfcfc #bbbbbb #000000 0 1;
#X obj 1629 507 r from-peak-\$1;
#X obj 1594 476 sub.bop.util.scale 0 1 1 1000;
#X obj 1789 710 sub.bop.util.scale 0 1 -3 3;
#X obj 1515 755 sub.bop.en.adsr~ 1000 1 1000 0.5 1000 -3;
#X obj 1501 538 moses 1;
#X obj 622 181 s \$0-velocity;
#X obj 1501 422 r \$0-velocity;
#X obj 1741 655 sub.bop.util.scale 0 1 1 3000;
#X obj 1668 567 sub.bop.util.scale 0 1 1 3000;
#X obj 23 294 hsl 120 19 0 1 0 1 \$0-from-lfo-speed \$0-to-lfo-speed lfo-speed:0 -2 10 0 12 #fcfcfc #bbbbbb #000000 0 1;
#X obj 23 315 hsl 120 19 0 1 0 1 \$0-from-lfo-depth \$0-to-lfo-depth lfo-depth:0 -2 10 0 12 #fcfcfc #bbbbbb #000000 0 1;
#X obj 1661 141 * 20;
#X obj 615 212 r \$0-from-track;
#X msg 332 456 0;
#X obj 304 529 s \$0-to-dividend;
#X obj 1408 37 r \$0-from-dividend;
#X obj 1441 63 r \$0-from-divisor;
#X obj 278 552 s \$0-to-divisor;
#X obj 581 511 s \$0-to-tune;
#X obj 607 472 s \$0-to-track;
#X obj 651 440 s \$0-to-dividend;
#X obj 702 414 s \$0-to-divisor;
#X obj 1222 52 r \$0-from-detune;
#X obj 331 493 s \$0-to-detune;
#X obj 773 381 s \$0-to-detune;
#X obj 1594 446 r \$0-from-a;
#X obj 1668 542 r \$0-from-d;
#X obj 1706 597 r \$0-from-s;
#X obj 1741 623 r \$0-from-r;
#X obj 1789 686 r \$0-from-c;
#X obj 558 1089 r \$0-from-gain;
#X obj 477 1009 r \$0-from-r;
#X obj 464 981 r \$0-from-s;
#X obj 445 953 r \$0-from-d;
#X obj 432 927 r \$0-from-a;
#X obj 420 900 r \$0-from-fm;
#X obj 403 873 r \$0-from-detune;
#X obj 388 839 r \$0-from-divisor;
#X obj 368 811 r \$0-from-dividend;
#X obj 353 781 r \$0-from-track;
#X obj 330 746 r \$0-from-tune;
#X obj 494 1035 r \$0-from-lfo-speed;
#X obj 528 1061 r \$0-from-lfo-depth;
#X text 2344 2643 comment;
#X obj 316 1202 savestate, f 13;
#X obj 274 1766 s \$0-to-tune;
#X obj 304 1730 s \$0-to-track;
#X obj 318 1698 s \$0-to-dividend;
#X obj 339 1672 s \$0-to-divisor;
#X obj 370 1639 s \$0-to-detune;
#X obj 408 1612 s \$0-to-fm;
#X obj 423 1579 s \$0-to-a;
#X obj 458 1553 s \$0-to-d;
#X obj 487 1521 s \$0-to-s;
#X obj 523 1494 s \$0-to-r;
#X obj 538 1469 s \$0-to-lfo-speed;
#X obj 576 1441 s \$0-to-lfo-depth;
#X obj 591 1411 s \$0-to-gain;
#X text 284 654 ------------------------------ SAVESTATE ------------------------------------, f 80;
#X text 289 40 --------------------- MESSAGE FORWARDING --------------------, f 66;
#X text 278 371 --------------- INIT ----------------;
#X obj 309 707 r \$0-savestate;
#X obj 404 1256 s \$0-savestate;
#X obj 310 796 f;
#X obj 318 1153 pack f f f f f f f f f f f f f, f 32;
#X obj 315 1354 unpack f f f f f f f f f f f f f, f 38;
#X obj 311 1237 t b l, f 10;
#X obj 314 1313 list, f 10;
#X obj 309 1279 delay 50;
#X obj 1269 407 r \$0-from-lfo-speed;
#X obj 1290 549 r \$0-from-lfo-depth;
#X obj 1269 454 * 440;
#X obj 1271 430 pow 4;
#X obj 1546 582 / 127;
#X obj 1511 804 *~;
#X obj 279 89 s \$0-inlet;
#X obj 582 321 r \$0-inlet;
#X obj 582 86 r \$0-inlet;
#X obj 582 110 route list;
#X obj 279 146 sub.param \$0 gain;
#X obj 279 167 sub.param \$0 fm;
#X obj 279 188 sub.param \$0 lfo-depth;
#X obj 279 209 sub.param \$0 lfo-speed;
#X obj 23 198 hsl 120 19 0 1 0 1 \$0-from-a \$0-to-a a:0 -2 10 0 12 #fcfcfc #bbbbbb #000000 0 1;
#X obj 23 219 hsl 120 19 0 1 0 1 \$0-from-d \$0-to-d d:0.672 -2 10 0 12 #fcfcfc #bbbbbb #000000 8000 1;
#X obj 23 240 hsl 120 19 0 1 0 1 \$0-from-s \$0-to-s s:1 -2 10 0 12 #fcfcfc #bbbbbb #000000 11900 1;
#X obj 23 261 hsl 120 19 0 1 0 1 \$0-from-r \$0-to-r r:0.361 -2 10 0 12 #fcfcfc #bbbbbb #000000 4300 1;
#X obj 279 230 sub.param \$0 a;
#X obj 279 251 sub.param \$0 d;
#X obj 279 272 sub.param \$0 s;
#X obj 279 293 sub.param \$0 r;
#X obj 582 347 route tune track dividend divisor detune;
#X connect 0 0 6 1;
#X connect 2 0 0 0;
#X connect 3 0 2 0;
#X connect 3 1 2 1;
#X connect 6 0 23 0;
#X connect 8 0 10 0;
#X connect 10 0 11 0;
#X connect 10 0 14 0;
#X connect 11 0 14 1;
#X connect 12 0 11 1;
#X connect 14 0 6 0;
#X connect 16 0 119 0;
#X connect 17 0 19 0;
#X connect 18 0 17 0;
#X connect 20 0 8 0;
#X connect 21 0 41 0;
#X connect 22 0 21 0;
#X connect 23 0 22 0;
#X connect 25 0 32 1;
#X connect 26 0 27 0;
#X connect 27 0 25 0;
#X connect 28 0 26 0;
#X connect 29 0 32 0;
#X connect 30 0 18 0;
#X connect 30 1 49 0;
#X connect 31 0 55 0;
#X connect 32 0 23 1;
#X connect 33 0 37 0;
#X connect 34 0 36 1;
#X connect 35 0 36 0;
#X connect 36 0 21 1;
#X connect 37 0 34 0;
#X connect 38 0 39 0;
#X connect 38 0 57 0;
#X connect 39 0 61 0;
#X connect 39 0 58 0;
#X connect 40 0 41 1;
#X connect 41 0 42 0;
#X connect 42 0 15 0;
#X connect 44 0 47 3;
#X connect 45 0 47 2;
#X connect 46 0 47 7;
#X connect 47 0 118 0;
#X connect 48 0 47 1;
#X connect 48 1 117 0;
#X connect 50 0 48 0;
#X connect 51 0 47 6;
#X connect 52 0 47 4;
#X connect 55 0 28 0;
#X connect 56 0 17 1;
#X connect 57 0 67 0;
#X connect 59 0 2 0;
#X connect 60 0 3 0;
#X connect 66 0 12 0;
#X connect 69 0 45 0;
#X connect 70 0 52 0;
#X connect 71 0 47 5;
#X connect 72 0 51 0;
#X connect 73 0 46 0;
#X connect 74 0 108 12;
#X connect 75 0 108 9;
#X connect 76 0 108 8;
#X connect 77 0 108 7;
#X connect 78 0 108 6;
#X connect 79 0 108 5;
#X connect 80 0 108 4;
#X connect 81 0 108 3;
#X connect 82 0 108 2;
#X connect 83 0 108 1;
#X connect 84 0 107 1;
#X connect 85 0 108 10;
#X connect 86 0 108 11;
#X connect 88 0 110 0;
#X connect 88 1 106 0;
#X connect 105 0 107 0;
#X connect 107 0 108 0;
#X connect 108 0 88 0;
#X connect 109 0 89 0;
#X connect 109 1 90 0;
#X connect 109 2 91 0;
#X connect 109 3 92 0;
#X connect 109 4 93 0;
#X connect 109 5 94 0;
#X connect 109 6 95 0;
#X connect 109 7 96 0;
#X connect 109 8 97 0;
#X connect 109 9 98 0;
#X connect 109 10 99 0;
#X connect 109 11 100 0;
#X connect 109 12 101 0;
#X connect 110 0 112 0;
#X connect 110 1 111 1;
#X connect 111 0 109 0;
#X connect 112 0 111 0;
#X connect 113 0 116 0;
#X connect 114 0 34 1;
#X connect 115 0 33 0;
#X connect 116 0 115 0;
#X connect 117 0 47 0;
#X connect 117 0 118 1;
#X connect 118 0 42 1;
#X connect 120 0 135 0;
#X connect 121 0 122 0;
#X connect 122 0 30 0;
#X connect 135 0 62 0;
#X connect 135 1 63 0;
#X connect 135 2 64 0;
#X connect 135 3 65 0;
#X connect 135 4 68 0;
#X coords 0 -1 1 1 150 370 1 10 10;
