#N canvas 0 37 1328 891 12;
#X obj 855 333 output~;
#X floatatom 75 185 5 0 0 0 - - - 0;
#X obj 280 491 *~ 0.75;
#X obj 280 566 s~ out;
#X obj 868 79 r~ out;
#X floatatom 97 233 5 0 0 0 - - - 0;
#X floatatom 129 185 5 0 0 0 - - - 0;
#X obj 280 526 clip~ -0.9 0.9;
#X text 142 234 pitch shift;
#X obj 453 125 sub.fm-control;
#X obj 639 124 sub.fm-control;
#X text 981 29 Combine into single FM operator patch;
#X obj 62 69 notein;
#X obj 60 111 pack;
#X obj 71 346 s notepair;
#X obj 74 308 pack, f 11;
#X obj 279 125 sub.fm-control;
#X obj 281 60 r notepair;
#X obj 859 123 util.scope~;
#X text 1141 1514 comment;
#X obj 59 144 poly 1 1;
#X obj 74 264 +;
#X connect 1 0 21 0;
#X connect 2 0 7 0;
#X connect 4 0 18 0;
#X connect 5 0 21 1;
#X connect 6 0 15 1;
#X connect 7 0 3 0;
#X connect 9 0 16 1;
#X connect 10 0 9 1;
#X connect 12 0 13 0;
#X connect 12 1 13 1;
#X connect 13 0 20 0;
#X connect 15 0 14 0;
#X connect 16 0 2 0;
#X connect 17 0 9 0;
#X connect 17 0 16 0;
#X connect 17 0 10 0;
#X connect 18 0 0 0;
#X connect 20 1 1 0;
#X connect 20 2 6 0;
#X connect 21 0 15 0;
