#N canvas 0 37 781 891 12;
#X obj 116 686 output~;
#X floatatom 199 184 5 0 0 0 - - - 0;
#X floatatom 213 216 5 0 0 0 - - - 0;
#X floatatom 253 184 5 0 0 0 - - - 0;
#X text 266 233 pitch shift;
#X obj 169 69 notein;
#X obj 167 111 pack;
#X obj 116 482 util.scope~;
#X text 1141 1514 comment;
#X obj 208 254 +;
#X obj 168 301 pack f f f, f 11;
#X obj 166 144 poly 4 1;
#X obj 166 252 - 1;
#X obj 290 422 clone fm-voice-epiano 4;
#X obj 467 424 clone fm-voice-bell 4;
#X obj 115 422 clone fm-voice-brass 8;
#X connect 1 0 9 0;
#X connect 2 0 9 1;
#X connect 3 0 10 2;
#X connect 5 0 6 0;
#X connect 5 1 6 1;
#X connect 6 0 11 0;
#X connect 7 0 0 0;
#X connect 9 0 10 1;
#X connect 10 0 15 0;
#X connect 10 0 13 0;
#X connect 10 0 14 0;
#X connect 11 0 12 0;
#X connect 11 1 1 0;
#X connect 11 2 3 0;
#X connect 12 0 10 0;
#X connect 15 0 7 0;
