#N canvas 120 37 1162 891 12;
#X obj 841 375 output~;
#X floatatom 75 185 5 0 0 0 - - - 0;
#X obj 280 515 *~ 0.75;
#X obj 280 590 s~ out;
#X obj 841 126 r~ out;
#X floatatom 97 233 5 0 0 0 - - - 0;
#X floatatom 129 185 5 0 0 0 - - - 0;
#X obj 280 550 clip~ -0.9 0.9;
#X text 142 234 pitch shift;
#X text 981 29 Combine into single FM operator patch;
#X obj 62 69 notein;
#X obj 60 111 pack;
#X obj 65 445 s notepair;
#X obj 74 308 pack, f 11;
#X obj 281 60 r notepair;
#X obj 841 171 util.scope~;
#X text 1141 1514 comment;
#X obj 59 144 poly 1 1;
#X obj 74 264 +;
#X obj 453 524 util.scope~;
#X obj 700 523 util.scope~;
#X obj 279 125 fm-operator;
#A saved 130.813 1 1 1 0 0.336134 0 1 0 0 0 0 1;
#X obj 453 125 fm-operator;
#A saved 130.813 1 4 1 0 0.193277 0 1 0 0 0.319328 0.260504 0.991597;
#X obj 639 124 fm-operator;
#A saved 130.813 1 5 1 0 0 0 0.508475 0 0 0 0 1;
#X connect 1 0 18 0;
#X connect 2 0 7 0;
#X connect 4 0 15 0;
#X connect 5 0 18 1;
#X connect 6 0 13 1;
#X connect 7 0 3 0;
#X connect 10 0 11 0;
#X connect 10 1 11 1;
#X connect 11 0 17 0;
#X connect 13 0 12 0;
#X connect 14 0 21 0;
#X connect 14 0 22 0;
#X connect 14 0 23 0;
#X connect 15 0 0 0;
#X connect 17 1 1 0;
#X connect 17 2 6 0;
#X connect 18 0 13 0;
#X connect 21 0 2 0;
#X connect 22 0 21 1;
#X connect 22 0 19 0;
#X connect 23 0 22 1;
#X connect 23 0 20 0;
