#N canvas 0 37 1372 891 12;
#X obj 372 613 output~;
#X floatatom 381 158 5 0 0 0 - - - 0;
#X floatatom 395 190 5 0 0 0 - - - 0;
#X floatatom 435 158 5 0 0 0 - - - 0;
#X text 448 207 pitch shift;
#X obj 368 42 notein;
#X obj 366 84 pack;
#X obj 372 409 util.scope~;
#X text 1141 1514 comment;
#X obj 390 228 +;
#X obj 371 364 clone FM-SYNTH-voice 4;
#X obj 367 274 pack f f f, f 11;
#X obj 365 117 poly 4 1;
#X listbox 415 302 20 0 0 0 - - - 0;
#X obj 315 233 - 1;
#X connect 1 0 9 0;
#X connect 2 0 9 1;
#X connect 3 0 11 2;
#X connect 5 0 6 0;
#X connect 5 1 6 1;
#X connect 6 0 12 0;
#X connect 7 0 0 0;
#X connect 9 0 11 1;
#X connect 10 0 7 0;
#X connect 11 0 13 0;
#X connect 11 0 10 0;
#X connect 12 0 14 0;
#X connect 12 1 1 0;
#X connect 12 2 3 0;
#X connect 14 0 11 0;
