#N canvas 0 37 1328 891 12;
#X obj 531 339 output~;
#X floatatom 47 313 5 0 0 0 - - - 0;
#X obj 285 1081 *~ 0.75;
#X obj 285 1156 s~ out;
#X obj 544 85 r~ out;
#X obj 46 540 + 24;
#X floatatom 69 509 5 0 0 0 - - - 0;
#X floatatom 102 330 5 0 0 0 - - - 0;
#X obj 285 1116 clip~ -0.9 0.9;
#X text 114 510 pitch shift;
#X obj 283 391 sub.fm-control;
#X obj 285 52 sub.fm-control;
#X text 981 29 Combine into single FM operator patch;
#X obj 42 126 notein;
#X obj 33 186 pack;
#X obj 68 692 s notepair;
#X obj 56 633 pack;
#X obj 284 729 sub.fm-control;
#X obj 426 16 r notepair;
#X obj 535 129 util.scope~;
#X text 1141 1514 comment;
#X obj 39 221 poly 1 1;
#X connect 1 0 5 0;
#X connect 2 0 8 0;
#X connect 4 0 19 0;
#X connect 5 0 16 0;
#X connect 6 0 5 1;
#X connect 7 0 16 1;
#X connect 8 0 3 0;
#X connect 10 0 17 0;
#X connect 10 1 17 1;
#X connect 11 0 10 0;
#X connect 11 1 10 1;
#X connect 13 0 14 0;
#X connect 13 1 14 1;
#X connect 14 0 21 0;
#X connect 16 0 15 0;
#X connect 17 0 2 0;
#X connect 18 0 11 1;
#X connect 19 0 0 0;
#X connect 21 1 1 0;
#X connect 21 2 7 0;
