#N canvas 0 37 781 891 12;
#X obj 114 716 output~;
#X floatatom 182 185 5 0 0 0 - - - 0;
#X floatatom 196 217 5 0 0 0 - - - 0;
#X floatatom 236 185 5 0 0 0 - - - 0;
#X text 249 234 pitch shift;
#X obj 169 69 notein;
#X obj 167 111 pack;
#X obj 114 512 util.scope~;
#X text 1141 1514 comment;
#X obj 191 255 +;
#X obj 168 301 pack f f f, f 11;
#X obj 166 144 poly 4 1;
#X listbox 216 329 20 0 0 0 - - - 0;
#X obj 116 260 - 1;
#X obj 122 371 spigot;
#X obj 168 341 tgl 19 0 empty empty empty 0 -10 0 12 #fcfcfc #000000 #000000 0 1;
#X obj 115 422 clone fm-voice-brass 4;
#X obj 290 422 clone fm-voice-epiano 4;
#X obj 467 424 clone fm-voice-bell 4;
#X connect 1 0 9 0;
#X connect 2 0 9 1;
#X connect 3 0 10 2;
#X connect 5 0 6 0;
#X connect 5 1 6 1;
#X connect 6 0 11 0;
#X connect 7 0 0 0;
#X connect 9 0 10 1;
#X connect 10 0 12 0;
#X connect 10 0 14 0;
#X connect 11 0 13 0;
#X connect 11 1 1 0;
#X connect 11 2 3 0;
#X connect 13 0 10 0;
#X connect 14 0 16 0;
#X connect 14 0 18 0;
#X connect 14 0 17 0;
#X connect 15 0 14 1;
#X connect 17 0 7 0;
