#N canvas 0 37 1053 891 12;
#X obj 1205 693 output~;
#X obj 475 117 mtof~;
#X floatatom 47 313 5 0 0 0 - - - 0;
#X obj 474 202 +~, f 15;
#X obj 716 554 *~;
#X obj 472 275 osc~;
#N canvas 121 158 450 278 (subpatch) 0;
#X array scope 100 float 1;
#A 0 0 0 0 0 0 0 0 0 0 0 0 0 0 0 0 0 0 0 0 0 0 0 0 0 0 0 0 0 0 0 0 0 0 0 0 0 0 0 0 0 0 0 0 0 0 0 0 0 0 0 0 0 0 0 0 0 0 0 0 0 0 0 0 0 0 0 0 0 0 0 0 0 0 0 0 0 0 0 0 0 0 0 0 0 0 0 0 0 0 0 0 0 0 0 0 0 0 0 0 0;
#X coords 0 1 99 -1 200 140 1;
#X restore 983 681 graph;
#X obj 1205 826 tabwrite~ scope;
#X obj 1205 765 tgl 19 0 empty empty empty 0 -10 0 12 #fcfcfc #000000 #000000 0 1;
#X obj 712 322 osc~;
#X obj 1205 795 metro 100;
#X obj 49 73 r notepair;
#X obj 574 149 *~;
#X obj 104 458 s~ env1;
#X obj 591 109 r~ env1;
#X obj 490 349 r~ env1;
#X obj 471 379 *~;
#X obj 467 421 *~ 0.75;
#X obj 467 496 s~ out;
#X obj 1287 796 r~ out;
#X obj 1203 667 r~ out;
#X obj 46 540 + 24;
#X floatatom 69 509 5 0 0 0 - - - 0;
#X obj 48 243 unpack, f 8;
#X obj 101 350 / 127;
#X floatatom 195 352 5 0 0 0 - - - 0;
#X floatatom 241 351 5 0 0 0 - - - 0;
#X floatatom 288 353 5 0 0 0 - - - 0;
#X floatatom 341 350 5 0 0 0 - - - 0;
#X obj 102 385 adsr 1 5 3000 0 100, f 34;
#X floatatom 104 302 5 0 0 0 - - - 0;
#X floatatom 155 353 5 0 0 0 - - - 0;
#X obj 467 456 clip~ -0.9 0.9;
#X text 354 386 ADSR;
#X text 114 510 pitch shift;
#X obj 990 338 hsl 162 19 0 1 0 0 empty empty FM\ amount -2 -10 0 12 #fcfcfc #000000 #000000 0 1;
#X obj 971 523 *~;
#X obj 956 283 osc~;
#X obj 986 482 line~;
#X floatatom 986 422 5 0 0 0 - - - 0;
#X msg 986 452 \$1 100;
#X obj 714 248 +~, f 29;
#X obj 716 597 s~ freqmod;
#X obj 575 80 r~ freqmod;
#X obj 988 362 pow 4;
#X obj 744 367 hsl 162 19 0 1 0 0 empty empty FM\ amount -2 -10 0 12 #fcfcfc #000000 #000000 0 1;
#X obj 742 510 line~;
#X floatatom 742 450 5 0 0 0 - - - 0;
#X msg 742 480 \$1 100;
#X obj 744 390 pow 4;
#X obj 103 415 pow~ 2;
#X obj 715 86 sub.fm-control;
#X obj 953 94 sub.fm-control;
#X obj 46 571 s note;
#X obj 715 44 r note;
#X obj 951 54 r note;
#X obj 475 79 r note;
#X obj 956 247 +~, f 25;
#X text 908 23 Combine into single FM operator patch;
#X text 1036 532 Add LFO with depth and speed;
#X text 1042 507 Add ADSR with invert;
#X obj 80 116 notein;
#X obj 71 176 pack;
#X obj 986 390 * 10000;
#X obj 742 418 * 10000;
#X connect 1 0 3 0;
#X connect 2 0 21 0;
#X connect 3 0 5 0;
#X connect 4 0 42 0;
#X connect 5 0 16 0;
#X connect 8 0 10 0;
#X connect 9 0 4 0;
#X connect 10 0 7 0;
#X connect 11 0 23 0;
#X connect 12 0 3 1;
#X connect 14 0 12 1;
#X connect 15 0 16 1;
#X connect 16 0 17 0;
#X connect 17 0 32 0;
#X connect 19 0 7 0;
#X connect 20 0 0 0;
#X connect 21 0 53 0;
#X connect 22 0 21 1;
#X connect 23 0 2 0;
#X connect 23 1 30 0;
#X connect 24 0 29 0;
#X connect 25 0 29 2;
#X connect 26 0 29 3;
#X connect 27 0 29 4;
#X connect 28 0 29 5;
#X connect 29 0 50 0;
#X connect 30 0 24 0;
#X connect 31 0 29 1;
#X connect 32 0 18 0;
#X connect 35 0 44 0;
#X connect 36 0 41 1;
#X connect 37 0 36 0;
#X connect 38 0 36 1;
#X connect 39 0 40 0;
#X connect 40 0 38 0;
#X connect 41 0 9 0;
#X connect 43 0 12 0;
#X connect 44 0 63 0;
#X connect 45 0 49 0;
#X connect 46 0 4 1;
#X connect 47 0 48 0;
#X connect 48 0 46 0;
#X connect 49 0 64 0;
#X connect 50 0 13 0;
#X connect 51 0 41 0;
#X connect 52 0 57 0;
#X connect 54 0 51 0;
#X connect 55 0 52 0;
#X connect 56 0 1 0;
#X connect 57 0 37 0;
#X connect 61 0 62 0;
#X connect 61 1 62 1;
#X connect 62 0 23 0;
#X connect 63 0 39 0;
#X connect 64 0 47 0;
