#N canvas 0 37 1336 891 12;
#X obj 960 724 output~;
#X floatatom 47 313 5 0 0 0 - - - 0;
#X obj 159 445 s~ env1;
#X obj 450 913 r~ env1;
#X obj 431 943 *~;
#X obj 430 1000 *~ 0.75;
#X obj 430 1075 s~ out;
#X obj 971 488 r~ out;
#X obj 46 540 + 24;
#X floatatom 69 509 5 0 0 0 - - - 0;
#X obj 48 243 unpack, f 8;
#X obj 156 337 / 127;
#X floatatom 250 339 5 0 0 0 - - - 0;
#X floatatom 296 338 5 0 0 0 - - - 0;
#X floatatom 343 340 5 0 0 0 - - - 0;
#X floatatom 396 337 5 0 0 0 - - - 0;
#X obj 157 372 adsr 1 5 3000 0 100, f 34;
#X floatatom 102 330 5 0 0 0 - - - 0;
#X floatatom 210 340 5 0 0 0 - - - 0;
#X obj 430 1035 clip~ -0.9 0.9;
#X text 409 373 ADSR;
#X text 114 510 pitch shift;
#X obj 158 402 pow~ 2;
#X obj 669 354 sub.fm-control;
#X obj 872 76 sub.fm-control;
#X text 981 29 Combine into single FM operator patch;
#X text 1044 374 Add ADSR with invert;
#X obj 80 116 notein;
#X obj 71 176 pack;
#X obj 669 214 r notepair;
#X obj 870 36 r notepair;
#X obj 68 692 s notepair;
#X obj 56 633 pack;
#X obj 432 632 sub.fm-control;
#X obj 433 552 r notepair;
#X obj 571 605 *~;
#X obj 587 558 r~ env1;
#X obj 47 280 stripnote;
#X obj 963 526 util.scope~;
#X connect 1 0 8 0;
#X connect 3 0 4 1;
#X connect 4 0 5 0;
#X connect 5 0 19 0;
#X connect 7 0 38 0;
#X connect 8 0 32 0;
#X connect 9 0 8 1;
#X connect 10 0 37 0;
#X connect 10 1 37 1;
#X connect 11 0 16 0;
#X connect 12 0 16 2;
#X connect 13 0 16 3;
#X connect 14 0 16 4;
#X connect 15 0 16 5;
#X connect 16 0 22 0;
#X connect 17 0 11 0;
#X connect 17 0 32 1;
#X connect 18 0 16 1;
#X connect 19 0 6 0;
#X connect 22 0 2 0;
#X connect 23 0 35 0;
#X connect 24 0 23 1;
#X connect 27 0 28 0;
#X connect 27 1 28 1;
#X connect 28 0 10 0;
#X connect 29 0 23 0;
#X connect 30 0 24 0;
#X connect 32 0 31 0;
#X connect 33 0 4 0;
#X connect 34 0 33 0;
#X connect 35 0 33 1;
#X connect 36 0 35 1;
#X connect 37 0 1 0;
#X connect 37 1 17 0;
#X connect 38 0 0 0;
