#N canvas 866 116 450 718 12;
#X obj 109 18 tgl 19 0 empty empty empty 0 -10 0 12 #fcfcfc #000000 #000000 0 1;
#X obj 96 351 list split;
#X obj 151 106 list length;
#X obj 107 151 random;
#X floatatom 165 310 5 0 0 0 - - - 0;
#X obj 124 407 unpack;
#X obj 92 210 t b i;
#X obj 109 112 bng 19 250 50 0 empty empty empty 0 -10 0 12 #fcfcfc #000000 #000000;
#X obj 23 209 loadbang;
#X obj 121 440 t i b;
#X obj 206 679 s notepair;
#X obj 121 520 + 40;
#X listbox 186 408 20 0 0 0 - - - 0;
#X listbox 276 642 20 0 0 0 - - - 0;
#X floatatom 177 19 5 0 0 0 - - - 0;
#X obj 109 57 metro 5000;
#X msg 92 270 0 2 3 5;
#X obj 204 567 makenote 100 2000;
#X obj 235 603 pack;
#X obj 158 520 + 27;
#X obj 158 481 random 100;
#X connect 0 0 15 0;
#X connect 1 1 5 0;
#X connect 1 1 12 0;
#X connect 2 0 3 1;
#X connect 3 0 6 0;
#X connect 4 0 1 1;
#X connect 5 0 9 0;
#X connect 6 0 16 0;
#X connect 6 1 4 0;
#X connect 7 0 3 0;
#X connect 8 0 16 0;
#X connect 9 0 11 0;
#X connect 9 1 20 0;
#X connect 11 0 17 0;
#X connect 14 0 15 1;
#X connect 15 0 7 0;
#X connect 16 0 2 0;
#X connect 16 0 1 0;
#X connect 17 0 18 0;
#X connect 17 1 18 1;
#X connect 18 0 13 0;
#X connect 18 0 10 0;
#X connect 19 0 17 1;
#X connect 20 0 19 0;
