#N canvas 0 37 1470 891 12;
#X floatatom 1203 189 4 0 0 0 - - - 0;
#X text 56 84 /;
#X obj 1203 158 /, f 6;
#X obj 1246 107 t b f;
#X floatatom 70 83 5 0 0 0 - \$0-to-ratio-bottom \$0-from-ratio-bottom 0;
#X floatatom 18 84 5 0 0 0 - \$0-to-ratio-top \$0-from-ratio-top 0;
#X obj 952 279 *~;
#X floatatom 16 55 10 0 0 0 - \$0-to-tune \$0-from-tune 0;
#X obj 957 53 sig~;
#X obj 92 57 tgl 19 0 \$0-from-key-track \$0-to-key-track empty 0 -10 0 12 #fcfcfc #000000 #000000 0 1;
#X obj 956 96 +~;
#X text 13 33 Tune (hz);
#X obj 1007 155 *~;
#X obj 1029 109 / 100;
#X floatatom 18 106 7 0 0 0 - - \$0-detune 0;
#X obj 954 183 +~;
#X text 75 108 Detune (%);
#X text 111 82 Ratio;
#X obj 978 865 outlet~;
#X obj 1025 60 r \$0-detune;
#X obj 455 18 inlet;
#X obj 387 376 spigot;
#X obj 388 334 mtof;
#X text 114 57 track;
#X obj 387 405 s \$0-to-tune;
#X obj 955 26 r \$0-from-tune;
#X obj 965 737 *~;
#X obj 961 505 osc~;
#X obj 952 376 +~, f 71;
#X obj 24 330 hsl 120 19 0 1 0 0 \$0-from-gain \$0-to-gain gain -2 10 0 12 #fcfcfc #000000 #000000 0 1;
#X obj 1462 281 line~;
#X floatatom 1460 216 22 0 0 0 - - - 0;
#X msg 1462 251 \$1 100;
#X obj 1461 181 pow 4;
#X obj 1441 40 inlet~;
#X obj 535 69 unpack;
#X floatatom 575 155 5 0 0 0 - - - 0;
#X obj 1462 134 r \$0-from-fm;
#X obj 1450 323 *~;
#X obj 1083 474 osc~ 0.5;
#X obj 1117 613 *~;
#X floatatom 69 277 5 0 100 1 % - \$0-lfo-percent 0;
#X obj 1176 593 / 100;
#X obj 1034 599 sig~ 1;
#X obj 1047 635 -~;
#X obj 1085 512 expr~ $v1 * 0.5 + 0.5;
#X obj 1089 419 r \$0-lfo-speed;
#X obj 1192 551 r \$0-lfo-percent;
#X floatatom 69 300 5 0 0 1 hz/100 - \$0-lfo-speed 0;
#X obj 1211 45 r \$0-from-ratio-top;
#X obj 1244 71 r \$0-from-ratio-bottom;
#X obj 19 613 s \$0-to-ratio-bottom;
#X obj 45 590 s \$0-to-ratio-top;
#X obj 28 445 loadbang;
#X msg 28 481 1;
#X obj 430 342 r \$0-from-key-track;
#X obj 77 567 s \$0-to-key-track;
#X obj 1104 745 r \$0-from-gain;
#X obj 90 542 s \$0-to-gain;
#X obj 972 792 *~;
#X obj 96 519 s \$0-to-fm;
#X obj 595 286 adsr 1 5 3000 0 100, f 34;
#X text 480 246 ADSR;
#X obj 678 332 pow~ 2;
#X obj 679 375 s~ \$0-env;
#X obj 1054 790 r~ \$0-env;
#X obj 975 827 *~;
#X obj 677 95 r \$0-from-attack;
#X obj 710 119 r \$0-from-decay;
#X obj 754 144 r \$0-from-sustain;
#X obj 811 168 r \$0-from-release;
#X obj 26 819 s \$0-to-attack;
#X obj 75 789 s \$0-to-decay;
#X obj 119 760 s \$0-to-sustain;
#X obj 155 733 s \$0-to-release;
#X obj 43 670 loadbang;
#X msg 25 792 10;
#X msg 75 759 3000;
#X msg 150 708 3000;
#X text 1652 1211 comment;
#X msg 118 737 100;
#X obj 577 209 / 127;
#X obj 40 196 vsl 14 60 30 3000 1 0 \$0-from-attack \$0-to-attack A 3 -9 0 12 #fcfcfc #000000 #000000 0 1;
#X obj 63 197 vsl 14 60 50 3000 1 0 \$0-from-decay \$0-to-decay D 3 -9 0 12 #fcfcfc #000000 #000000 0 1;
#X obj 112 196 vsl 14 60 50 3000 1 0 \$0-from-release \$0-to-release R 3 -9 0 12 #fcfcfc #000000 #000000 0 1;
#X obj 86 195 vsl 14 60 0 100 0 0 \$0-from-release \$0-to-release S 3 -9 0 12 #fcfcfc #000000 #000000 0 1;
#X obj 1084 447 / 100;
#X text 31 288 LFO;
#X obj 26 143 hsl 120 19 0.1 10 0 0 \$0-from-fm \$0-10-fm FM -2 10 0 12 #fcfcfc #000000 #000000 0 1;
#X connect 0 0 6 1;
#X connect 2 0 0 0;
#X connect 3 0 2 0;
#X connect 3 1 2 1;
#X connect 6 0 28 0;
#X connect 8 0 10 0;
#X connect 10 0 12 0;
#X connect 10 0 15 0;
#X connect 12 0 15 1;
#X connect 13 0 12 1;
#X connect 15 0 6 0;
#X connect 19 0 13 0;
#X connect 20 0 35 0;
#X connect 21 0 24 0;
#X connect 22 0 21 0;
#X connect 25 0 8 0;
#X connect 26 0 59 0;
#X connect 27 0 26 0;
#X connect 28 0 27 0;
#X connect 30 0 38 1;
#X connect 31 0 32 0;
#X connect 32 0 30 0;
#X connect 33 0 31 0;
#X connect 34 0 38 0;
#X connect 35 0 22 0;
#X connect 35 1 36 0;
#X connect 36 0 81 0;
#X connect 37 0 33 0;
#X connect 38 0 28 1;
#X connect 39 0 45 0;
#X connect 40 0 44 1;
#X connect 42 0 40 1;
#X connect 43 0 44 0;
#X connect 44 0 26 1;
#X connect 45 0 40 0;
#X connect 46 0 86 0;
#X connect 47 0 42 0;
#X connect 49 0 2 0;
#X connect 50 0 3 0;
#X connect 53 0 54 0;
#X connect 54 0 52 0;
#X connect 54 0 51 0;
#X connect 54 0 56 0;
#X connect 54 0 58 0;
#X connect 54 0 60 0;
#X connect 55 0 21 1;
#X connect 57 0 59 1;
#X connect 59 0 66 0;
#X connect 61 0 63 0;
#X connect 63 0 64 0;
#X connect 65 0 66 1;
#X connect 66 0 18 0;
#X connect 67 0 61 2;
#X connect 68 0 61 3;
#X connect 69 0 61 4;
#X connect 70 0 61 5;
#X connect 75 0 76 0;
#X connect 75 0 77 0;
#X connect 75 0 80 0;
#X connect 75 0 78 0;
#X connect 76 0 71 0;
#X connect 77 0 72 0;
#X connect 78 0 74 0;
#X connect 80 0 73 0;
#X connect 81 0 61 0;
#X connect 86 0 39 0;
#X coords 0 -1 1 1 150 350 1 10 10;
