#N canvas 181 237 1088 664 12;
#X obj 187 159 inlet~;
#X floatatom 467 363 4 0 0 0 - - - 0;
#X text 56 84 /;
#X obj 467 332 /, f 6;
#X obj 510 281 t b f;
#X floatatom 70 83 5 0 0 0 - - \$0-ratio-bottom 0;
#X floatatom 18 84 5 0 0 0 - - \$0-ratio-top 0;
#X obj 216 453 *~;
#X floatatom 19 33 7 0 0 0 - - \$0-tune 0;
#X obj 367 204 sig~;
#X obj 182 197 *~, f 11;
#X obj 20 56 tgl 19 0 \$0-key-track empty empty 0 -10 0 12 #fcfcfc #000000 #000000 0 1;
#X obj 287 124 line~;
#X msg 285 94 \$1 10;
#X obj 305 248 *~;
#X obj 220 270 +~;
#X text 72 32 Tune (hz);
#X obj 296 177 -~ 1;
#X obj 304 214 abs~;
#X obj 271 329 *~;
#X obj 365 287 / 100;
#X floatatom 18 106 5 0 0 0 - - \$0-detune 0;
#X obj 218 357 +~;
#X text 75 108 Detune (%);
#X text 111 82 Ratio;
#X obj 215 507 outlet~;
#X obj 285 67 r \$0-key-track;
#X obj 363 167 r \$0-tune;
#X obj 361 238 r \$0-detune;
#X obj 475 219 r \$0-ratio-top;
#X obj 508 245 r \$0-ratio-bottom;
#X text 47 55 Keytrack;
#X connect 0 0 10 0;
#X connect 1 0 7 1;
#X connect 3 0 1 0;
#X connect 4 0 3 0;
#X connect 4 1 3 1;
#X connect 7 0 25 0;
#X connect 9 0 14 1;
#X connect 10 0 15 0;
#X connect 12 0 10 1;
#X connect 12 0 17 0;
#X connect 13 0 12 0;
#X connect 14 0 15 1;
#X connect 15 0 19 0;
#X connect 15 0 22 0;
#X connect 17 0 18 0;
#X connect 18 0 14 0;
#X connect 19 0 22 1;
#X connect 20 0 19 1;
#X connect 22 0 7 0;
#X connect 26 0 13 0;
#X connect 27 0 9 0;
#X connect 28 0 20 0;
#X connect 29 0 3 0;
#X connect 30 0 4 0;
#X coords 0 -1 1 1 150 120 1 10 10;
