#N canvas 181 237 1088 664 12;
#X floatatom 467 363 4 0 0 0 - - - 0;
#X text 56 84 /;
#X obj 467 332 /, f 6;
#X obj 510 281 t b f;
#X floatatom 70 83 5 0 0 0 - - \$0-ratio-bottom 0;
#X floatatom 18 84 5 0 0 0 - - \$0-ratio-top 0;
#X obj 216 453 *~;
#X floatatom 16 55 10 0 0 0 - \$0-to-tune \$0-from-tune 0;
#X obj 221 227 sig~;
#X obj 92 57 tgl 19 0 \$0-key-track empty empty 0 -10 0 12 #fcfcfc #000000 #000000 0 1;
#X obj 220 270 +~;
#X text 13 33 Tune (hz);
#X obj 271 329 *~;
#X obj 365 287 / 100;
#X floatatom 18 106 7 0 0 0 - - \$0-detune 0;
#X obj 218 357 +~;
#X text 75 108 Detune (%);
#X text 111 82 Ratio;
#X obj 215 507 outlet~;
#X obj 361 238 r \$0-detune;
#X obj 475 219 r \$0-ratio-top;
#X obj 508 245 r \$0-ratio-bottom;
#X obj 282 42 inlet;
#X obj 323 117 spigot;
#X obj 378 87 r \$0-key-track;
#X obj 302 76 mtof;
#X text 114 57 track;
#X obj 327 146 s \$0-to-tune;
#X obj 218 179 r \$0-from-tune;
#X connect 0 0 6 1;
#X connect 2 0 0 0;
#X connect 3 0 2 0;
#X connect 3 1 2 1;
#X connect 6 0 18 0;
#X connect 8 0 10 0;
#X connect 10 0 12 0;
#X connect 10 0 15 0;
#X connect 12 0 15 1;
#X connect 13 0 12 1;
#X connect 15 0 6 0;
#X connect 19 0 13 0;
#X connect 20 0 2 0;
#X connect 21 0 3 0;
#X connect 22 0 25 0;
#X connect 23 0 27 0;
#X connect 24 0 23 1;
#X connect 25 0 23 0;
#X connect 28 0 8 0;
#X coords 0 -1 1 1 150 120 1 10 10;
