#N canvas 157 49 1128 840 12;
#X floatatom 467 363 4 0 0 0 - - - 0;
#X text 56 84 /;
#X obj 467 332 /, f 6;
#X obj 510 281 t b f;
#X floatatom 70 83 5 0 0 0 - \$0-to-ratio-bottom \$0-from-ratio-bottom 0;
#X floatatom 18 84 5 0 0 0 - \$0-to-ratio-top \$0-from-ratio-top 0;
#X obj 216 453 *~;
#X floatatom 16 55 10 0 0 0 - \$0-to-tune \$0-from-tune 0;
#X obj 221 227 sig~;
#X obj 92 57 tgl 19 0 \$0-from-key-track \$0-to-key-track empty 0 -10 0 12 #fcfcfc #000000 #000000 0 1;
#X obj 220 270 +~;
#X text 13 33 Tune (hz);
#X obj 271 329 *~;
#X obj 293 283 / 100;
#X floatatom 18 106 7 0 0 0 - - \$0-detune 0;
#X obj 218 357 +~;
#X text 75 108 Detune (%);
#X text 111 82 Ratio;
#X obj 243 1019 outlet~;
#X obj 289 234 r \$0-detune;
#X obj 298 9 inlet;
#X obj 301 132 spigot;
#X obj 302 90 mtof;
#X text 114 57 track;
#X obj 301 161 s \$0-to-tune;
#X obj 219 200 r \$0-from-tune;
#X obj 229 911 *~;
#X obj 225 679 osc~;
#X obj 216 550 +~, f 71;
#X obj 20 153 hsl 120 19 0 1 0 0 \$0-from-gain \$0-to-gain gain -2 10 0 12 #fcfcfc #000000 #000000 0 1;
#X obj 583 899 line~;
#X floatatom 627 753 22 0 0 0 - - - 0;
#X msg 583 869 \$1 100;
#X obj 632 643 pow 4;
#X obj 705 214 inlet~;
#X obj 300 47 unpack;
#X floatatom 497 98 5 0 0 0 - - - 0;
#X obj 633 596 r \$0-from-fm;
#X obj 321 873 *~;
#X obj 347 648 osc~ 0.5;
#X obj 381 787 *~;
#X floatatom 101 234 5 0 0 0 LFO\ % - \$0-lfo-percent 0;
#X obj 440 767 / 100;
#X obj 298 773 sig~ 1;
#X obj 311 809 -~;
#X obj 349 686 expr~ $v1 * 0.5 + 0.5;
#X obj 354 614 r \$0-lfo-speed;
#X obj 456 725 r \$0-lfo-percent;
#X floatatom 102 212 5 0 0 0 LFO\ speed - \$0-lfo-speed 0;
#X floatatom 88 183 5 1 100 0 FM \$0-to-fm \$0-from-fm 16;
#X obj 475 219 r \$0-from-ratio-top;
#X obj 508 245 r \$0-from-ratio-bottom;
#X obj 863 185 s \$0-to-ratio-bottom;
#X obj 889 162 s \$0-to-ratio-top;
#X obj 870 20 loadbang;
#X msg 870 56 1;
#X obj 344 98 r \$0-from-key-track;
#X obj 921 139 s \$0-to-key-track;
#X obj 385 943 r \$0-from-gain;
#X obj 934 114 s \$0-to-gain;
#X obj 236 966 *~;
#X obj 940 91 s \$0-to-fm;
#X connect 0 0 6 1;
#X connect 2 0 0 0;
#X connect 3 0 2 0;
#X connect 3 1 2 1;
#X connect 6 0 28 0;
#X connect 8 0 10 0;
#X connect 10 0 12 0;
#X connect 10 0 15 0;
#X connect 12 0 15 1;
#X connect 13 0 12 1;
#X connect 15 0 6 0;
#X connect 19 0 13 0;
#X connect 20 0 35 0;
#X connect 21 0 24 0;
#X connect 22 0 21 0;
#X connect 25 0 8 0;
#X connect 26 0 60 0;
#X connect 27 0 26 0;
#X connect 28 0 27 0;
#X connect 30 0 38 1;
#X connect 31 0 32 0;
#X connect 32 0 30 0;
#X connect 33 0 31 0;
#X connect 34 0 28 1;
#X connect 35 0 22 0;
#X connect 35 1 36 0;
#X connect 37 0 33 0;
#X connect 38 0 26 1;
#X connect 39 0 45 0;
#X connect 40 0 44 1;
#X connect 42 0 40 1;
#X connect 43 0 44 0;
#X connect 44 0 38 0;
#X connect 45 0 40 0;
#X connect 46 0 39 0;
#X connect 47 0 42 0;
#X connect 50 0 2 0;
#X connect 51 0 3 0;
#X connect 54 0 55 0;
#X connect 55 0 53 0;
#X connect 55 0 52 0;
#X connect 55 0 57 0;
#X connect 55 0 59 0;
#X connect 55 0 61 0;
#X connect 56 0 21 1;
#X connect 58 0 60 1;
#X connect 60 0 18 0;
#X coords 0 -1 1 1 150 260 1 10 10;
