#N canvas 0 37 1470 891 12;
#X floatatom 611 187 4 0 0 0 - - - 0;
#X text 56 84 /;
#X obj 611 156 /, f 6;
#X obj 654 105 t b f;
#X floatatom 70 83 5 0 0 0 - \$0-to-ratio-bottom \$0-from-ratio-bottom 0;
#X floatatom 18 84 5 0 0 0 - \$0-to-ratio-top \$0-from-ratio-top 0;
#X obj 360 277 *~;
#X floatatom 16 55 10 0 0 0 - \$0-to-tune \$0-from-tune 0;
#X obj 365 51 sig~;
#X obj 92 57 tgl 19 0 \$0-from-key-track \$0-to-key-track empty 0 -10 0 12 #fcfcfc #000000 #000000 0 1;
#X obj 364 94 +~;
#X text 13 33 Tune (hz);
#X obj 415 153 *~;
#X obj 437 107 / 100;
#X floatatom 18 106 7 0 0 0 - - \$0-detune 0;
#X obj 362 181 +~;
#X text 75 108 Detune (%);
#X text 111 82 Ratio;
#X obj 371 880 outlet~;
#X obj 433 58 r \$0-detune;
#X obj 1045 48 inlet;
#X obj 977 406 spigot;
#X obj 978 364 mtof;
#X text 114 57 track;
#X obj 977 435 s \$0-to-tune;
#X obj 363 24 r \$0-from-tune;
#X obj 373 735 *~;
#X obj 369 503 osc~;
#X obj 360 374 +~, f 71;
#X obj 23 300 hsl 120 19 0 1 0 0 \$0-from-gain \$0-to-gain gain -2 10 0 12 #fcfcfc #000000 #000000 0 1;
#X obj 727 723 line~;
#X floatatom 771 577 22 0 0 0 - - - 0;
#X msg 727 693 \$1 100;
#X obj 776 467 pow 4;
#X obj 849 38 inlet~;
#X obj 1125 99 unpack;
#X floatatom 1165 185 5 0 0 0 - - - 0;
#X obj 777 420 r \$0-from-fm;
#X obj 465 697 *~;
#X obj 491 472 osc~ 0.5;
#X obj 525 611 *~;
#X floatatom 93 216 5 0 0 0 LFO\ % - \$0-lfo-percent 0;
#X obj 584 591 / 100;
#X obj 442 597 sig~ 1;
#X obj 455 633 -~;
#X obj 493 510 expr~ $v1 * 0.5 + 0.5;
#X obj 498 438 r \$0-lfo-speed;
#X obj 600 549 r \$0-lfo-percent;
#X floatatom 94 194 5 0 0 0 LFO\ speed - \$0-lfo-speed 0;
#X floatatom 57 148 5 1 100 0 FM \$0-to-fm \$0-from-fm 16;
#X obj 619 43 r \$0-from-ratio-top;
#X obj 652 69 r \$0-from-ratio-bottom;
#X obj 19 613 s \$0-to-ratio-bottom;
#X obj 45 590 s \$0-to-ratio-top;
#X obj 28 445 loadbang;
#X msg 28 481 1;
#X obj 1020 372 r \$0-from-key-track;
#X obj 77 567 s \$0-to-key-track;
#X obj 529 767 r \$0-from-gain;
#X obj 90 542 s \$0-to-gain;
#X obj 380 790 *~;
#X obj 96 519 s \$0-to-fm;
#X obj 1185 316 adsr 1 5 3000 0 100, f 34;
#X text 1462 282 ADSR;
#X obj 1268 362 pow~ 2;
#X obj 1269 405 s~ \$0-env;
#X obj 445 808 r~ \$0-env;
#X obj 383 825 *~;
#X floatatom 38 245 5 0 2000 0 A \$0-to-attack \$0-from-attack 0;
#X obj 1267 185 r \$0-from-attack;
#X floatatom 94 245 5 0 5000 0 D \$0-to-decay \$0-from-decay 0;
#X obj 1300 209 r \$0-from-decay;
#X floatatom 37 267 5 0 100 0 S \$0-to-sustain \$0-from-sustain 0;
#X obj 1344 234 r \$0-from-sustain;
#X floatatom 94 268 5 0 5000 0 R \$0-to-release \$0-from-release 0;
#X obj 1401 258 r \$0-from-release;
#X obj 26 819 s \$0-to-attack;
#X obj 75 789 s \$0-to-decay;
#X obj 119 760 s \$0-to-sustain;
#X obj 155 733 s \$0-to-release;
#X obj 43 670 loadbang;
#X msg 25 792 10;
#X msg 75 759 3000;
#X msg 150 708 3000;
#X text 1652 1211 comment;
#X msg 118 737 100;
#X obj 1036 233 outlet;
#X floatatom 1245 262 5 0 0 0 - - - 0;
#X obj 1167 239 / 127;
#X connect 0 0 6 1;
#X connect 2 0 0 0;
#X connect 3 0 2 0;
#X connect 3 1 2 1;
#X connect 6 0 28 0;
#X connect 8 0 10 0;
#X connect 10 0 12 0;
#X connect 10 0 15 0;
#X connect 12 0 15 1;
#X connect 13 0 12 1;
#X connect 15 0 6 0;
#X connect 19 0 13 0;
#X connect 20 0 35 0;
#X connect 20 0 86 0;
#X connect 21 0 24 0;
#X connect 22 0 21 0;
#X connect 25 0 8 0;
#X connect 26 0 60 0;
#X connect 27 0 26 0;
#X connect 28 0 27 0;
#X connect 30 0 38 1;
#X connect 31 0 32 0;
#X connect 32 0 30 0;
#X connect 33 0 31 0;
#X connect 34 0 28 1;
#X connect 35 0 22 0;
#X connect 35 1 36 0;
#X connect 36 0 88 0;
#X connect 37 0 33 0;
#X connect 38 0 26 1;
#X connect 39 0 45 0;
#X connect 40 0 44 1;
#X connect 42 0 40 1;
#X connect 43 0 44 0;
#X connect 44 0 38 0;
#X connect 45 0 40 0;
#X connect 46 0 39 0;
#X connect 47 0 42 0;
#X connect 50 0 2 0;
#X connect 51 0 3 0;
#X connect 54 0 55 0;
#X connect 55 0 53 0;
#X connect 55 0 52 0;
#X connect 55 0 57 0;
#X connect 55 0 59 0;
#X connect 55 0 61 0;
#X connect 56 0 21 1;
#X connect 58 0 60 1;
#X connect 60 0 67 0;
#X connect 62 0 64 0;
#X connect 64 0 65 0;
#X connect 66 0 67 1;
#X connect 67 0 18 0;
#X connect 69 0 62 2;
#X connect 69 0 87 0;
#X connect 71 0 62 3;
#X connect 73 0 62 4;
#X connect 75 0 62 5;
#X connect 80 0 81 0;
#X connect 80 0 82 0;
#X connect 80 0 85 0;
#X connect 80 0 83 0;
#X connect 81 0 76 0;
#X connect 82 0 77 0;
#X connect 83 0 79 0;
#X connect 85 0 78 0;
#X connect 88 0 62 0;
#X coords 0 -1 1 1 150 320 1 10 10;
